<?xml version="1.0" standalone="no"?><!DOCTYPE svg PUBLIC "-//W3C//DTD SVG 1.1//EN" "http://www.w3.org/Graphics/SVG/1.1/DTD/svg11.dtd"><svg class="icon" width="64px" height="64.00px" viewBox="0 0 1024 1024" version="1.1" xmlns="http://www.w3.org/2000/svg"><path fill="#dbdbdb" d="M161.482667 123.584 122.464 123.584 55.306667 123.584l0 82.794667 67.157333 0 39.018667 0c19.754667 0 35.776-16.021333 35.776-35.776L197.258667 159.36C197.258667 139.584 181.237333 123.584 161.482667 123.584zM161.482667 305.194667 122.464 305.194667 55.306667 305.194667l0 82.794667 67.157333 0 39.018667 0c19.754667 0 35.776-16.021333 35.776-35.776l0-11.264C197.258667 321.216 181.237333 305.194667 161.482667 305.194667zM161.482667 486.805333 122.464 486.805333 55.306667 486.805333l0 82.816 67.157333 0 39.018667 0c19.754667 0 35.776-16.064 35.776-35.797333l0-11.285333C197.258667 502.826667 181.237333 486.805333 161.482667 486.805333zM161.482667 668.394667 122.464 668.394667 55.306667 668.394667l0 82.794667 67.157333 0 39.018667 0c19.754667 0 35.776-15.978667 35.776-35.754667l0-11.242667C197.258667 684.416 181.237333 668.394667 161.482667 668.394667zM161.482667 850.026667 122.464 850.026667 55.306667 850.026667l0 82.816 67.157333 0 39.018667 0c19.754667 0 35.776-16.021333 35.776-35.776l0-11.242667C197.258667 866.048 181.237333 850.026667 161.482667 850.026667zM880.949333 0 210.229333 0C161.824 0 122.613333 39.189333 122.485333 87.573333l38.997333 0c39.573333 0 71.786667 32.192 71.786667 71.786667l0 11.242667c0 39.594667-32.213333 71.786667-71.786667 71.786667L122.464 242.389333l0 26.794667 39.018667 0c39.573333 0 71.786667 32.192 71.786667 71.765333l0 11.264c0 39.573333-32.213333 71.786667-71.786667 71.786667L122.464 424l0 26.794667 39.018667 0c39.573333 0 71.786667 32.213333 71.786667 71.765333l0 11.285333c0 39.573333-32.213333 71.744-71.786667 71.744L122.464 605.589333l0 26.837333 39.018667 0c39.573333 0 71.786667 32.192 71.786667 71.765333l0 11.242667c0 39.552-32.213333 71.765333-71.786667 71.765333L122.464 787.2l0 26.794667 39.018667 0c39.573333 0 71.786667 32.234667 71.786667 71.808l0 11.242667c0 39.552-32.213333 71.744-71.786667 71.744L129.546667 968.789333c13.418667 31.317333 44.458667 53.312 80.661333 53.312l670.72 0c48.448 0 87.744-39.296 87.744-87.765333L968.672 87.786667C968.693333 39.296 929.418667 0 880.949333 0zM839.882667 389.376 273.461333 389.376l0-82.517333 566.442667 0L839.904 389.376zM839.882667 219.968 273.461333 219.968 273.461333 137.450667l566.442667 0L839.904 219.968z" /></svg>