<?xml version="1.0" standalone="no"?><!DOCTYPE svg PUBLIC "-//W3C//DTD SVG 1.1//EN" "http://www.w3.org/Graphics/SVG/1.1/DTD/svg11.dtd"><svg class="icon" width="64px" height="64.00px" viewBox="0 0 1024 1024" version="1.1" xmlns="http://www.w3.org/2000/svg"><path fill="#dbdbdb" d="M764.7744 76.8h28.8256A128 128 0 0 1 921.6 204.8v691.2a128 128 0 0 1-128 128h-563.2A128 128 0 0 1 102.4 896V204.8a128 128 0 0 1 128-128h28.8256A102.4 102.4 0 0 1 358.4 0h307.2a102.4 102.4 0 0 1 99.1744 76.8z m-505.5488 51.2H230.4A76.8 76.8 0 0 0 153.6 204.8v691.2A76.8 76.8 0 0 0 230.4 972.8h563.2a76.8 76.8 0 0 0 76.8-76.8V204.8a76.8 76.8 0 0 0-76.8-76.8h-28.8256A102.4 102.4 0 0 1 665.6 204.8H358.4a102.4 102.4 0 0 1-99.1744-76.8zM358.4 51.2a51.2 51.2 0 1 0 0 102.4h307.2a51.2 51.2 0 0 0 0-102.4H358.4z"  /></svg>