<?xml version="1.0" standalone="no"?><!DOCTYPE svg PUBLIC "-//W3C//DTD SVG 1.1//EN" "http://www.w3.org/Graphics/SVG/1.1/DTD/svg11.dtd"><svg class="icon" width="128" height="128" viewBox="0 0 1024 1024" version="1.1" xmlns="http://www.w3.org/2000/svg"><path fill="#cdcdcd" d="M285.961382 908.33877l-171.044608-171.045631L671.681304 180.530656l171.044608 171.045631zM952.741561 198.788485L824.45785 70.50375c-11.808954-11.808954-30.93557-11.82635-42.724058-0.038885l-88.355327 88.354304c-0.106424 0.106424-0.204661 0.218988-0.311085 0.327458l171.030282 171.030281c0.10847-0.105401 0.220011-0.203638 0.327458-0.310062l88.354304-88.355327c11.788487-11.787464 11.772115-30.91408-0.037863-42.723034zM62.389444 791.317567v140.810003c0 16.698311 13.537318 30.236652 30.237675 30.236651h140.810003l31.895431-31.895431-171.047678-171.047678-31.895431 31.896455z"  /></svg>